<svg width="54" height="28" viewBox="0 0 54 28" fill="none" xmlns="http://www.w3.org/2000/svg">
<path fill-rule="evenodd" clip-rule="evenodd" d="M0 0H46.281L53.995 14.56L46.281 28H0V0Z" fill="#121D2E"/>
<path fill-rule="evenodd" clip-rule="evenodd" d="M16.062 7.10002H10.911V19H13.665V15.719H16.065C17.0066 15.7413 17.9422 15.5648 18.811 15.201C19.5432 14.8895 20.166 14.3669 20.6 13.7C21.0284 13.0158 21.2471 12.2211 21.229 11.414C21.2487 10.6052 21.03 9.80841 20.6 9.12302C20.1614 8.45888 19.5381 7.93748 18.807 7.62302C17.9397 7.25518 17.0038 7.07687 16.062 7.10002ZM15.909 13.475H13.665V9.34402H15.909C16.5826 9.29653 17.2515 9.48614 17.8 9.88002C18.0185 10.0696 18.1904 10.307 18.3024 10.5737C18.4144 10.8404 18.4636 11.1293 18.446 11.418C18.4626 11.7043 18.4129 11.9906 18.3009 12.2545C18.1888 12.5185 18.0174 12.7531 17.8 12.94C17.2525 13.3326 16.5851 13.5219 15.913 13.475H15.909ZM26.041 11.061V9.85402H23.508V19H26.16V14.682C26.1334 14.3362 26.177 13.9887 26.288 13.6601C26.399 13.3316 26.5752 13.0288 26.806 12.77C27.0456 12.5495 27.3271 12.3795 27.6338 12.2699C27.9404 12.1603 28.2659 12.1134 28.591 12.132C28.693 12.132 28.8913 12.1434 29.186 12.166V9.71802C28.5492 9.70581 27.9164 9.82142 27.325 10.058C26.812 10.2645 26.3675 10.611 26.042 11.058L26.041 11.061ZM35.541 19.136C36.4387 19.1526 37.3265 18.9464 38.125 18.536C38.8632 18.1536 39.4811 17.5742 39.91 16.862C40.3463 16.1272 40.57 15.2855 40.556 14.431C40.5708 13.5768 40.3482 12.7352 39.913 12C39.4841 11.2878 38.8662 10.7084 38.128 10.326C37.323 9.9291 36.4375 9.72265 35.54 9.72265C34.6425 9.72265 33.757 9.9291 32.952 10.326C32.2101 10.7065 31.5888 11.2861 31.158 12C30.7216 12.7349 30.498 13.5765 30.512 14.431C30.4979 15.2856 30.7216 16.1272 31.158 16.862C31.5888 17.5759 32.21 18.1556 32.952 18.536C33.7536 18.9458 34.6438 19.1519 35.544 19.136H35.541ZM35.541 16.96C35.2279 16.9695 34.9162 16.913 34.6263 16.7943C34.3364 16.6757 34.0746 16.4974 33.858 16.271C33.6312 16.0227 33.4559 15.7318 33.3421 15.4153C33.2283 15.0988 33.1783 14.7629 33.195 14.427C33.1783 14.0911 33.2283 13.7552 33.3421 13.4387C33.4559 13.1222 33.6312 12.8314 33.858 12.583C34.0747 12.3569 34.3365 12.1788 34.6264 12.0602C34.9163 11.9417 35.2279 11.8854 35.541 11.895C35.853 11.8849 36.1635 11.9409 36.4522 12.0595C36.7409 12.1781 37.0013 12.3565 37.216 12.583C37.6691 13.0875 37.9042 13.7508 37.87 14.428C37.9042 15.1053 37.6691 15.7685 37.216 16.273C37.0013 16.4997 36.7411 16.6783 36.4524 16.7971C36.1636 16.9158 35.853 16.9721 35.541 16.962V16.96Z" fill="white"/>
</svg>
